<svg width="59" height="20" viewBox="0 0 59 20" fill="none" xmlns="http://www.w3.org/2000/svg">
<path d="M8.242 0.592H11.57L13.676 6.702L15.808 0.592H19.11L15.938 8.99L18.278 14.866L23.504 0.539999H27.404L20.02 19H16.926L13.676 11.252L10.452 19H7.358L0 0.539999H3.848L9.1 14.866L11.388 8.99L8.242 0.592ZM34.227 19.26C33.135 19.26 32.147 19.078 31.263 18.714C30.379 18.3327 29.625 17.8213 29.001 17.18C28.377 16.5213 27.8916 15.776 27.545 14.944C27.2156 14.0947 27.051 13.202 27.051 12.266C27.051 10.966 27.337 9.77867 27.909 8.704C28.4983 7.62933 29.3303 6.77133 30.405 6.13C31.497 5.47133 32.7796 5.142 34.253 5.142C35.7436 5.142 37.0176 5.47133 38.075 6.13C39.1323 6.77133 39.9383 7.62933 40.493 8.704C41.065 9.76133 41.351 10.9053 41.351 12.136C41.351 12.344 41.3423 12.5607 41.325 12.786C41.3076 12.994 41.2903 13.1673 41.273 13.306H30.743C30.8123 13.9993 31.0116 14.606 31.341 15.126C31.6876 15.646 32.121 16.0447 32.641 16.322C33.1783 16.582 33.7503 16.712 34.357 16.712C35.0503 16.712 35.7003 16.5473 36.307 16.218C36.931 15.8713 37.3556 15.4207 37.581 14.866L40.571 15.698C40.2416 16.3913 39.765 17.0067 39.141 17.544C38.5343 18.0813 37.815 18.506 36.983 18.818C36.151 19.1127 35.2323 19.26 34.227 19.26ZM30.665 11.096H37.789C37.7196 10.4027 37.5203 9.80467 37.191 9.302C36.879 8.782 36.463 8.38333 35.943 8.106C35.423 7.81133 34.8423 7.664 34.201 7.664C33.577 7.664 33.005 7.81133 32.485 8.106C31.9823 8.38333 31.5663 8.782 31.237 9.302C30.925 9.80467 30.7343 10.4027 30.665 11.096ZM52.0014 19.26C50.9614 19.26 50.0341 19.026 49.2194 18.558C48.4048 18.09 47.7634 17.4487 47.2954 16.634V19H44.2534V0.0199995H47.7374V7.768C48.2228 6.95333 48.8554 6.312 49.6354 5.844C50.4328 5.376 51.3601 5.142 52.4174 5.142C53.3014 5.142 54.1074 5.33267 54.8354 5.714C55.5634 6.078 56.1874 6.58933 56.7074 7.248C57.2448 7.90667 57.6521 8.66067 57.9294 9.51C58.2241 10.3593 58.3714 11.2693 58.3714 12.24C58.3714 13.2107 58.2068 14.1207 57.8774 14.97C57.5654 15.8193 57.1234 16.5733 56.5514 17.232C55.9794 17.8733 55.3034 18.376 54.5234 18.74C53.7608 19.0867 52.9201 19.26 52.0014 19.26ZM51.0394 16.296C51.5941 16.296 52.0968 16.192 52.5474 15.984C53.0154 15.7587 53.4141 15.464 53.7434 15.1C54.0901 14.736 54.3501 14.3113 54.5234 13.826C54.7141 13.3233 54.8094 12.8033 54.8094 12.266C54.8094 11.5207 54.6534 10.836 54.3414 10.212C54.0468 9.57067 53.6308 9.05933 53.0934 8.678C52.5734 8.29667 51.9581 8.106 51.2474 8.106C50.7448 8.106 50.2594 8.22733 49.7914 8.47C49.3408 8.69533 48.9334 9.00733 48.5694 9.406C48.2228 9.80467 47.9454 10.2553 47.7374 10.758V14.008C47.8414 14.3547 48.0061 14.6667 48.2314 14.944C48.4741 15.2213 48.7514 15.464 49.0634 15.672C49.3754 15.8627 49.6961 16.0187 50.0254 16.14C50.3721 16.244 50.7101 16.296 51.0394 16.296Z" fill="#ffffff"/>
</svg>
